<?xml version="1.0" encoding="utf-8"?><svg xml:space="preserve" viewBox="0 0 100 100" y="0" x="0" xmlns="http://www.w3.org/2000/svg" id="Layer_1" version="1.1" width="90px" height="90px" xmlns:xlink="http://www.w3.org/1999/xlink" style="width:100%;height:100%;background-size:initial;background-repeat-y:initial;background-repeat-x:initial;background-position-y:initial;background-position-x:initial;background-origin:initial;background-color:initial;background-clip:initial;background-attachment:initial;animation-play-state:paused" ><g class="ldl-scale" style="transform-origin:50% 50%;transform:rotate(0deg) scale(0.62, 0.62);animation-play-state:paused" ><circle fill="#333" r="40" cy="50" cx="50" style="fill:rgb(32, 70, 81);animation-play-state:paused" ></circle>
<path fill="#fff" d="M72.702 41.782l-21.987-7.873a1.872 1.872 0 0 0-1.429 0l-21.988 7.874c-.789.282-1.298.964-1.298 1.735 0 .772.509 1.453 1.298 1.737l8.597 3.079v4.686c0 1.576.758 3.038 2.028 3.911 4.007 2.756 8.042 4.134 12.077 4.134s8.07-1.378 12.077-4.134c1.27-.873 2.028-2.335 2.028-3.911v-4.686l4.133-1.48v1.622a2.292 2.292 0 0 0-1.293 2.058c0 .907.53 1.684 1.293 2.058v2.758a2.292 2.292 0 0 0-1.293 2.058v10.824h4.599V57.409c0-.907-.53-1.684-1.293-2.058v-2.758a2.292 2.292 0 0 0 1.293-2.058c0-.907-.53-1.684-1.293-2.058v-2.343l2.452-.878.001-.001c.787-.284 1.296-.965 1.296-1.737 0-.771-.509-1.453-1.298-1.736z" style="fill:rgb(21, 33, 43);animation-play-state:paused" ></path>
<metadata xmlns:d="https://loading.io/stock/" style="animation-play-state:paused" ><d:name style="animation-play-state:paused" >education</d:name>


<d:tags style="animation-play-state:paused" >education,study,learn,research,college,graduate,phd,doctor,teach,instructor,lecturer</d:tags>


<d:license style="animation-play-state:paused" >by</d:license>


<d:slug style="animation-play-state:paused" >gkx4rp</d:slug></metadata></g><!-- generated by https://loading.io/ --></svg>